# xmcd
#
# Track frame offsets:
#	150
#	19855
#	34220
#	51822
#	64095
#	77695
#	96285
#	111950
#	133096
#	152770
#	171952
#
# Disc length: 2558 seconds
#
# Revision: 6
# Processed by: cddbd v1.5.2PL0 Copyright (c) Steve Scherf et al.
# Submitted via: EasyCDDAExtractor 8.2.3.1
#
DISCID=9109fc0b
DTITLE=Deborah Allen - Delta Dreamland
DYEAR=1993
DGENRE=Country
TTITLE0=Delta Dreamland
TTITLE1=Long Time Lovin' You
TTITLE2=All The Loving And The Hurting Too
TTITLE3=Emotional Moon
TTITLE4=Two Shades Of Blue
TTITLE5=Rock Me (In The Cradle Of Love)
TTITLE6=Chain Lightning
TTITLE7=If You're Not Gonna Love Me
TTITLE8=Undeniable
TTITLE9=Into My Life
TTITLE10=Rock Me (Dance Mix)
EXTD=GIANT Records\n\n\n\n\n\n\n\n\n\nGLR YEAR: 1995
EXTT0=
EXTT1=
EXTT2=
EXTT3=
EXTT4=
EXTT5=
EXTT6=
EXTT7=
EXTT8=
EXTT9=
EXTT10=
PLAYORDER=
